<svg width="854" height="796" viewBox="0 0 854 796" fill="none" xmlns="http://www.w3.org/2000/svg">
<g filter="url(#filter0_d_114_15)">
<path d="M321.57 395.848L229.435 436.834L229.433 436.835C228.584 437.213 228.159 437.402 227.765 437.569C210.022 445.101 189.492 441.816 174.984 429.122C174.661 428.84 174.316 428.528 173.626 427.903C173.058 427.389 172.775 427.132 172.51 426.885C160.698 415.875 154.941 399.878 157.047 383.925C157.094 383.568 157.149 383.19 157.26 382.436L157.26 382.434L181.336 218.48L398.294 92.0102C416.517 81.3877 439.582 83.8015 455.226 97.9683C467.126 108.745 472.869 124.7 470.545 140.529L452.753 261.693C449.966 280.672 427.013 288.824 412.744 275.902C406.726 270.453 403.873 262.353 405.157 254.366L421.322 153.828C422.154 148.309 423.439 142.886 425.178 137.561C425.264 137.295 425.35 137.033 425.436 136.774C426.231 134.369 422.411 131.678 420.422 133.254C416.147 136.283 411.692 138.834 407.056 140.909L312.11 184.772L213.539 358.017C211.566 361.484 210.58 363.218 209.862 364.7C208.8 366.893 208.989 366.454 208.125 368.731C207.541 370.271 206.016 375.267 202.966 385.259L202.965 385.26C202.774 385.885 202.577 386.51 202.374 387.133C202.294 387.376 202.215 387.617 202.136 387.856C201.338 390.273 205.364 393.201 207.446 391.726C211.51 388.506 215.86 385.859 220.496 383.784L299.319 347.37C309.087 342.857 320.631 344.621 328.608 351.844C342.888 364.775 339.17 388.019 321.57 395.848Z" fill="white"/>
<path d="M181.336 218.48L157.26 382.434C157.149 383.19 157.094 383.567 157.047 383.925C154.941 399.878 160.698 415.875 172.51 426.885C172.775 427.132 173.058 427.389 173.626 427.903V427.903C174.316 428.528 174.661 428.84 174.984 429.122C189.492 441.816 210.022 445.101 227.765 437.569C228.16 437.401 228.585 437.212 229.435 436.834L321.57 395.848C339.17 388.019 342.888 364.775 328.608 351.844V351.844C320.631 344.621 309.087 342.857 299.319 347.37L220.496 383.784C215.86 385.859 211.51 388.506 207.446 391.726V391.726C205.364 393.201 201.338 390.273 202.136 387.856C202.215 387.617 202.294 387.376 202.374 387.133C202.577 386.51 202.774 385.885 202.965 385.26C206.016 375.267 207.541 370.271 208.125 368.731C208.989 366.454 208.8 366.893 209.862 364.7C210.58 363.218 211.566 361.484 213.539 358.017L312.11 184.772M181.336 218.48L312.11 184.772M181.336 218.48L398.294 92.0102C416.517 81.3877 439.582 83.8015 455.226 97.9683V97.9683C467.126 108.745 472.869 124.7 470.545 140.529L452.753 261.693C449.966 280.672 427.013 288.824 412.744 275.902V275.902C406.726 270.453 403.873 262.353 405.157 254.366L421.322 153.828C422.154 148.309 423.439 142.886 425.178 137.561C425.264 137.295 425.35 137.033 425.436 136.774C426.231 134.369 422.411 131.678 420.422 133.254V133.254C416.147 136.283 411.692 138.834 407.056 140.909L312.11 184.772" stroke="black" stroke-width="10"/>
</g>
<g filter="url(#filter1_d_114_15)">
<path d="M381.253 402.998L289.118 443.984L289.116 443.985C288.267 444.362 287.842 444.551 287.448 444.719C269.705 452.251 249.175 448.966 234.667 436.272C234.344 435.99 233.999 435.677 233.31 435.053L233.309 435.053C232.741 434.538 232.458 434.281 232.193 434.035C220.382 423.024 214.624 407.027 216.73 391.074C216.777 390.717 216.833 390.34 216.943 389.585L216.943 389.584L241.019 225.63L457.977 99.1597C476.2 88.5371 499.265 90.9509 514.909 105.118C526.81 115.895 532.553 131.85 530.228 147.678L512.436 268.843C509.649 287.822 486.696 295.973 472.427 283.052C466.409 277.603 463.556 269.503 464.84 261.516L481.006 160.978C481.837 155.458 483.122 150.036 484.861 144.71C484.947 144.445 485.034 144.182 485.119 143.923C485.914 141.519 482.094 138.828 480.105 140.404C475.83 143.432 471.375 145.984 466.739 148.059L371.793 191.921L273.222 365.167C271.25 368.634 270.263 370.367 269.545 371.85C268.483 374.043 268.673 373.603 267.808 375.881C267.224 377.421 265.699 382.417 262.649 392.409L262.649 392.409C262.458 393.035 262.26 393.659 262.057 394.282C261.977 394.526 261.898 394.767 261.819 395.006C261.021 397.423 265.047 400.351 267.129 398.876C271.193 395.656 275.543 393.009 280.179 390.934L359.002 354.519C368.77 350.007 380.314 351.77 388.291 358.994C402.571 371.925 398.853 395.169 381.253 402.998Z" fill="white"/>
<path d="M241.019 225.63L216.943 389.584C216.833 390.339 216.777 390.717 216.73 391.074C214.624 407.027 220.382 423.024 232.193 434.035C232.458 434.281 232.741 434.538 233.309 435.053V435.053C233.999 435.677 234.344 435.99 234.667 436.272C249.175 448.966 269.705 452.251 287.448 444.719C287.843 444.551 288.268 444.362 289.118 443.984L381.253 402.998C398.853 395.169 402.571 371.925 388.291 358.994V358.994C380.314 351.77 368.77 350.007 359.002 354.519L280.179 390.934C275.543 393.009 271.193 395.656 267.13 398.876V398.876C265.047 400.351 261.021 397.423 261.819 395.006C261.898 394.767 261.977 394.526 262.057 394.282C262.26 393.659 262.458 393.035 262.649 392.409C265.699 382.417 267.224 377.421 267.808 375.881C268.673 373.603 268.483 374.043 269.545 371.85C270.263 370.367 271.25 368.634 273.222 365.167L371.793 191.921M241.019 225.63L371.793 191.921M241.019 225.63L457.977 99.1597C476.2 88.5371 499.265 90.9509 514.909 105.118V105.118C526.81 115.895 532.553 131.85 530.228 147.679L512.436 268.843C509.649 287.822 486.696 295.973 472.427 283.052V283.052C466.409 277.603 463.556 269.503 464.84 261.516L481.006 160.978C481.837 155.458 483.122 150.036 484.861 144.71C484.947 144.445 485.034 144.182 485.119 143.923C485.914 141.519 482.094 138.828 480.105 140.404V140.404C475.83 143.432 471.375 145.984 466.739 148.059L371.793 191.921" stroke="black" stroke-width="10"/>
</g>
<g filter="url(#filter2_d_114_15)">
<path d="M431.92 416.438L339.786 457.423L339.783 457.424C338.934 457.802 338.51 457.991 338.116 458.158C320.372 465.691 299.843 462.405 285.334 449.711C285.012 449.429 284.667 449.117 283.977 448.492L283.977 448.492C283.409 447.978 283.125 447.721 282.86 447.474C271.049 436.464 265.291 420.467 267.397 404.514C267.445 404.157 267.5 403.779 267.611 403.025L267.611 403.023L291.687 239.069L508.645 112.599C526.868 101.977 549.932 104.39 565.577 118.557C577.477 129.334 583.22 145.289 580.896 161.118L563.104 282.283C560.317 301.261 537.364 309.413 523.095 296.491C517.077 291.042 514.224 282.942 515.508 274.955L531.673 174.417C532.504 168.897 533.789 163.475 535.528 158.15C535.615 157.884 535.701 157.622 535.787 157.363C536.582 154.958 532.762 152.267 530.773 153.843C526.498 156.872 522.042 159.423 517.406 161.498L422.46 205.361L323.89 378.606C321.917 382.073 320.931 383.807 320.213 385.289C319.151 387.482 319.34 387.043 318.476 389.32C317.892 390.86 316.366 395.856 313.316 405.848L313.316 405.849C313.125 406.474 312.928 407.099 312.724 407.722C312.645 407.965 312.566 408.206 312.487 408.445C311.689 410.863 315.715 413.79 317.797 412.315C321.861 409.095 326.21 406.448 330.846 404.373L409.67 367.959C419.438 363.446 430.982 365.21 438.959 372.433C453.238 385.365 449.521 408.608 431.92 416.438Z" fill="white"/>
<path d="M291.687 239.069L267.611 403.023C267.5 403.779 267.445 404.156 267.397 404.514C265.291 420.467 271.049 436.464 282.86 447.474C283.125 447.721 283.409 447.978 283.977 448.492V448.492C284.667 449.117 285.012 449.429 285.334 449.711C299.843 462.405 320.372 465.691 338.116 458.158C338.51 457.991 338.935 457.801 339.786 457.423L431.92 416.438C449.521 408.608 453.238 385.365 438.959 372.433V372.433C430.982 365.21 419.438 363.446 409.67 367.959L330.846 404.373C326.21 406.448 321.861 409.095 317.797 412.315V412.315C315.715 413.79 311.689 410.863 312.487 408.445C312.566 408.206 312.645 407.965 312.724 407.722C312.928 407.099 313.125 406.474 313.316 405.849C316.366 395.857 317.892 390.86 318.476 389.32C319.34 387.043 319.151 387.482 320.213 385.289C320.931 383.807 321.917 382.073 323.89 378.606L422.46 205.361M291.687 239.069L422.46 205.361M291.687 239.069L508.645 112.599C526.868 101.977 549.932 104.39 565.576 118.557V118.557C577.477 129.334 583.22 145.289 580.896 161.118L563.104 282.283C560.317 301.261 537.364 309.413 523.095 296.491V296.491C517.077 291.042 514.224 282.942 515.508 274.955L531.673 174.417C532.504 168.897 533.789 163.475 535.528 158.15C535.615 157.884 535.701 157.622 535.787 157.363C536.582 154.958 532.762 152.267 530.773 153.843V153.843C526.498 156.872 522.042 159.423 517.406 161.498L422.46 205.361" stroke="black" stroke-width="10"/>
</g>
<g filter="url(#filter3_d_114_15)">
<path d="M425.82 297.304L517.955 256.318L517.958 256.317C518.807 255.939 519.231 255.751 519.625 255.583C537.369 248.051 557.898 251.336 572.407 264.03C572.729 264.312 573.074 264.625 573.764 265.249C574.332 265.764 574.616 266.021 574.881 266.268C586.692 277.278 592.45 293.275 590.344 309.228C590.297 309.585 590.241 309.963 590.13 310.718L590.13 310.718L566.054 474.673L349.095 601.144C330.872 611.767 307.807 609.353 292.163 595.186C280.262 584.409 274.519 568.454 276.844 552.625L294.636 431.46C297.423 412.481 320.376 404.329 334.645 417.251C340.663 422.7 343.516 430.8 342.232 438.787L326.067 539.326C325.235 544.846 323.95 550.268 322.211 555.593C322.125 555.859 322.039 556.121 321.953 556.381C321.158 558.785 324.978 561.476 326.967 559.9C331.242 556.871 335.698 554.32 340.333 552.245L435.28 508.382L533.851 335.135C535.824 331.668 536.81 329.935 537.528 328.452C538.59 326.259 538.401 326.699 539.265 324.421C539.849 322.881 541.374 317.886 544.424 307.896L544.425 307.893C544.616 307.267 544.813 306.643 545.017 306.02C545.096 305.776 545.175 305.535 545.254 305.297C546.052 302.879 542.026 299.951 539.944 301.426C535.88 304.646 531.53 307.294 526.895 309.368L448.071 345.783C438.303 350.296 426.759 348.532 418.782 341.309C404.502 328.377 408.219 305.133 425.82 297.304Z" fill="white"/>
<path d="M566.054 474.673L590.13 310.718C590.241 309.963 590.297 309.585 590.344 309.228C592.45 293.275 586.692 277.278 574.881 266.268C574.616 266.021 574.332 265.764 573.764 265.249V265.249C573.074 264.625 572.729 264.312 572.407 264.03C557.898 251.336 537.369 248.051 519.625 255.583C519.231 255.751 518.806 255.94 517.955 256.318L425.82 297.304C408.219 305.133 404.502 328.377 418.782 341.309V341.309C426.759 348.532 438.303 350.296 448.071 345.783L526.895 309.368C531.53 307.294 535.88 304.646 539.944 301.426V301.426C542.026 299.951 546.052 302.879 545.254 305.297C545.175 305.535 545.096 305.776 545.017 306.02C544.813 306.643 544.616 307.267 544.425 307.893C541.375 317.885 539.849 322.881 539.265 324.421C538.401 326.699 538.59 326.259 537.528 328.452C536.81 329.935 535.824 331.668 533.851 335.135L435.28 508.382M566.054 474.673L435.28 508.382M566.054 474.673L349.095 601.144C330.872 611.767 307.807 609.353 292.163 595.186V595.186C280.262 584.409 274.519 568.454 276.844 552.625L294.636 431.46C297.423 412.481 320.376 404.329 334.645 417.251V417.251C340.663 422.7 343.516 430.8 342.232 438.787L326.067 539.326C325.235 544.846 323.95 550.268 322.211 555.593C322.125 555.859 322.039 556.121 321.953 556.38C321.158 558.785 324.978 561.476 326.967 559.9V559.9C331.242 556.871 335.698 554.32 340.333 552.245L435.28 508.382" stroke="black" stroke-width="10"/>
</g>
<g filter="url(#filter4_d_114_15)">
<path d="M485.504 304.459L577.639 263.473L577.642 263.472C578.491 263.095 578.916 262.906 579.31 262.738C597.053 255.206 617.582 258.491 632.091 271.185C632.413 271.467 632.758 271.78 633.448 272.405C634.016 272.919 634.3 273.176 634.565 273.423C646.376 284.433 652.134 300.43 650.028 316.383C649.981 316.74 649.925 317.118 649.814 317.873L649.814 317.873L625.739 481.829L408.779 608.299C390.556 618.922 367.491 616.508 351.847 602.341C339.946 591.564 334.203 575.609 336.528 559.78L354.32 438.615C357.107 419.636 380.06 411.485 394.329 424.406C400.347 429.855 403.2 437.955 401.916 445.942L385.751 546.481C384.919 552.001 383.634 557.423 381.896 562.748C381.809 563.014 381.723 563.276 381.637 563.536C380.842 565.94 384.662 568.631 386.651 567.055C390.926 564.026 395.382 561.475 400.017 559.4L494.964 515.537L593.535 342.29C595.508 338.824 596.494 337.09 597.212 335.608C598.274 333.415 598.085 333.854 598.949 331.576C599.533 330.037 601.058 325.041 604.108 315.051L604.109 315.048C604.3 314.422 604.497 313.798 604.701 313.175C604.78 312.931 604.859 312.69 604.938 312.452C605.736 310.034 601.71 307.106 599.628 308.582C595.564 311.802 591.215 314.449 586.579 316.523L507.755 352.938C497.987 357.451 486.443 355.687 478.466 348.464C464.186 335.532 467.904 312.289 485.504 304.459Z" fill="white"/>
<path d="M625.739 481.829L649.814 317.873C649.925 317.118 649.981 316.74 650.028 316.383C652.134 300.43 646.376 284.433 634.565 273.423C634.3 273.176 634.016 272.919 633.448 272.405V272.405C632.758 271.78 632.413 271.467 632.091 271.185C617.582 258.491 597.053 255.206 579.31 262.738C578.915 262.906 578.49 263.095 577.639 263.473L485.504 304.459C467.904 312.289 464.186 335.532 478.466 348.464V348.464C486.443 355.687 497.987 357.451 507.755 352.938L586.579 316.523C591.214 314.449 595.564 311.802 599.628 308.582V308.582C601.71 307.106 605.736 310.034 604.938 312.452C604.859 312.69 604.78 312.931 604.701 313.175C604.497 313.798 604.3 314.422 604.109 315.048C601.059 325.04 599.533 330.036 598.949 331.576C598.085 333.854 598.274 333.415 597.212 335.608C596.494 337.09 595.508 338.824 593.535 342.29L494.964 515.537M625.739 481.829L494.964 515.537M625.739 481.829L408.779 608.299C390.556 618.922 367.491 616.508 351.847 602.341V602.341C339.946 591.564 334.203 575.609 336.528 559.78L354.32 438.615C357.107 419.636 380.06 411.485 394.329 424.406V424.406C400.347 429.855 403.2 437.955 401.916 445.942L385.751 546.481C384.919 552.001 383.634 557.423 381.896 562.748C381.809 563.014 381.723 563.276 381.637 563.536C380.842 565.94 384.662 568.631 386.651 567.055V567.055C390.926 564.026 395.382 561.475 400.017 559.4L494.964 515.537" stroke="black" stroke-width="10"/>
</g>
<g filter="url(#filter5_d_114_15)">
<path d="M536.17 317.891L628.305 276.906L628.308 276.904C629.157 276.527 629.582 276.338 629.976 276.171C647.719 268.638 668.248 271.923 682.757 284.617C683.079 284.899 683.424 285.212 684.114 285.837C684.682 286.351 684.966 286.608 685.231 286.855C697.042 297.865 702.8 313.862 700.694 329.815C700.647 330.172 700.591 330.55 700.48 331.305L700.48 331.306L676.405 495.261L459.445 621.732C441.222 632.354 418.157 629.94 402.513 615.773C390.612 604.997 384.869 589.041 387.194 573.213L404.986 452.047C407.773 433.069 430.726 424.917 444.995 437.838C451.013 443.288 453.866 451.387 452.582 459.375L436.417 559.913C435.585 565.433 434.3 570.855 432.562 576.181C432.475 576.446 432.389 576.709 432.303 576.968C431.508 579.372 435.328 582.063 437.317 580.487C441.592 577.459 446.048 574.907 450.683 572.832L545.63 528.969L644.201 355.723C646.174 352.256 647.16 350.522 647.878 349.04C648.94 346.847 648.751 347.286 649.615 345.009C650.199 343.469 651.724 338.473 654.774 328.483L654.775 328.48C654.966 327.855 655.163 327.23 655.367 326.607C655.446 326.364 655.525 326.123 655.604 325.884C656.402 323.467 652.376 320.539 650.294 322.014C646.23 325.234 641.881 327.881 637.245 329.956L558.421 366.371C548.653 370.883 537.109 369.12 529.132 361.896C514.852 348.965 518.57 325.721 536.17 317.891Z" fill="white"/>
<path d="M676.405 495.261L700.48 331.306C700.591 330.55 700.647 330.172 700.694 329.815C702.8 313.862 697.042 297.865 685.231 286.855C684.966 286.608 684.682 286.351 684.114 285.837V285.837C683.424 285.212 683.079 284.899 682.757 284.617C668.248 271.923 647.719 268.638 629.976 276.171C629.581 276.338 629.156 276.527 628.305 276.906L536.17 317.891C518.57 325.721 514.852 348.965 529.132 361.896V361.896C537.109 369.12 548.653 370.883 558.421 366.371L637.245 329.956C641.881 327.881 646.23 325.234 650.294 322.014V322.014C652.376 320.539 656.402 323.467 655.604 325.884C655.525 326.123 655.446 326.364 655.367 326.607C655.163 327.23 654.966 327.855 654.775 328.48C651.725 338.473 650.199 343.469 649.615 345.009C648.751 347.286 648.94 346.847 647.878 349.04C647.16 350.522 646.174 352.256 644.201 355.723L545.63 528.969M676.405 495.261L545.63 528.969M676.405 495.261L459.445 621.732C441.222 632.354 418.157 629.94 402.513 615.773V615.773C390.612 604.997 384.869 589.041 387.194 573.213L404.986 452.047C407.773 433.069 430.726 424.917 444.995 437.838V437.838C451.013 443.288 453.866 451.387 452.582 459.375L436.417 559.913C435.585 565.433 434.3 570.855 432.562 576.181C432.475 576.446 432.389 576.709 432.303 576.968C431.508 579.372 435.328 582.063 437.317 580.487V580.487C441.592 577.459 446.048 574.907 450.683 572.832L545.63 528.969" stroke="black" stroke-width="10"/>
</g>
<path d="M30.4792 795.867C21.2633 795.867 13.8794 792.526 8.32766 785.845C2.77589 779.163 0 770.121 0 758.716V734.525C0 723.236 2.77589 714.251 8.32766 707.57C13.8794 700.773 21.2633 697.375 30.4792 697.375C38.0297 697.375 43.9701 699.679 48.3004 704.286C52.6308 708.779 54.796 715.115 54.796 723.294L48.9666 717.246H54.796L53.9632 693.919V668H78.9462V794.139H54.796V775.996H48.9666L54.796 769.948C54.796 778.127 52.6308 784.52 48.3004 789.128C43.9701 793.62 38.0297 795.867 30.4792 795.867ZM39.4731 773.404C44.0256 773.404 47.5787 772.079 50.1325 769.429C52.6863 766.665 53.9632 762.806 53.9632 757.852V735.389C53.9632 730.436 52.6863 726.634 50.1325 723.985C47.5787 721.22 44.0256 719.838 39.4731 719.838C34.8096 719.838 31.201 721.22 28.6472 723.985C26.2044 726.634 24.983 730.436 24.983 735.389V757.852C24.983 762.806 26.2044 766.665 28.6472 769.429C31.201 772.079 34.8096 773.404 39.4731 773.404Z" fill="black"/>
<path d="M169.153 795.867C161.047 795.867 153.941 794.312 147.834 791.201C141.838 787.976 137.175 783.541 133.844 777.896C130.624 772.136 129.014 765.455 129.014 757.852V735.389C129.014 727.786 130.624 721.163 133.844 715.518C137.175 709.758 141.838 705.323 147.834 702.213C153.941 698.988 161.047 697.375 169.153 697.375C177.259 697.375 184.254 698.988 190.139 702.213C196.135 705.323 200.743 709.758 203.963 715.518C207.294 721.163 208.959 727.786 208.959 735.389V752.668H152.831V757.852C152.831 763.842 154.219 768.393 156.995 771.503C159.771 774.498 163.934 775.996 169.486 775.996C173.372 775.996 176.481 775.304 178.813 773.922C181.256 772.54 182.866 770.639 183.643 768.22H208.126C206.128 776.514 201.575 783.195 194.469 788.264C187.474 793.332 179.035 795.867 169.153 795.867ZM185.142 739.363V735.044C185.142 729.169 183.81 724.676 181.145 721.566C178.591 718.456 174.594 716.9 169.153 716.9C163.712 716.9 159.604 718.513 156.828 721.739C154.163 724.964 152.831 729.514 152.831 735.389V737.981L186.808 737.636L185.142 739.363Z" fill="black"/>
<path d="M282.511 794.139L252.531 699.103H278.347L293.67 752.496C294.558 755.721 295.446 759.235 296.335 763.036C297.223 766.838 297.889 769.89 298.333 772.194C298.888 769.89 299.555 766.838 300.332 763.036C301.22 759.235 302.053 755.779 302.83 752.668L317.987 699.103H343.469L313.823 794.139H282.511Z" fill="black"/>
<path d="M427.514 795.867C419.408 795.867 412.302 794.312 406.195 791.201C400.088 787.976 395.369 783.541 392.038 777.896C388.707 772.136 387.041 765.455 387.041 757.852V735.389C387.041 727.671 388.707 720.99 392.038 715.345C395.369 709.701 400.088 705.323 406.195 702.213C412.302 698.988 419.408 697.375 427.514 697.375C439.616 697.375 449.276 700.543 456.494 706.878C463.711 713.214 467.542 721.854 467.986 732.797H443.003C442.67 728.765 441.115 725.598 438.339 723.294C435.675 720.99 432.066 719.838 427.514 719.838C422.517 719.838 418.686 721.163 416.021 723.812C413.356 726.462 412.024 730.321 412.024 735.389V757.852C412.024 762.806 413.356 766.665 416.021 769.429C418.686 772.079 422.517 773.404 427.514 773.404C432.066 773.404 435.675 772.309 438.339 770.121C441.115 767.817 442.67 764.591 443.003 760.444H467.986C467.542 771.388 463.711 780.027 456.494 786.363C449.276 792.699 439.616 795.867 427.514 795.867Z" fill="black"/>
<path d="M571.017 794.139C564.577 794.139 558.914 792.756 554.029 789.992C549.143 787.112 545.313 783.138 542.537 778.069C539.872 773 538.539 767.125 538.539 760.444V691.327H510.225V668H563.522V760.444C563.522 763.554 564.411 766.089 566.187 768.047C568.075 769.89 570.518 770.812 573.516 770.812H600.164V794.139H571.017Z" fill="black"/>
<path d="M673.216 795.867C664 795.867 656.672 793.275 651.231 788.091C645.901 782.907 643.236 775.88 643.236 767.01C643.236 757.449 646.401 750.134 652.73 745.066C659.17 739.882 668.386 737.29 680.378 737.29H699.365V730.205C699.365 726.519 698.088 723.582 695.534 721.393C693.091 719.204 689.76 718.11 685.541 718.11C681.655 718.11 678.435 719.031 675.881 720.875C673.327 722.718 671.772 725.252 671.217 728.477H647.067C648.066 718.916 652.064 711.371 659.059 705.842C666.165 700.197 675.27 697.375 686.374 697.375C698.032 697.375 707.248 700.37 714.021 706.36C720.906 712.235 724.348 720.183 724.348 730.205V794.139H700.198V778.587H696.2L700.364 772.54C700.364 779.682 697.866 785.384 692.869 789.646C687.984 793.793 681.433 795.867 673.216 795.867ZM682.543 776.859C687.428 776.859 691.426 775.535 694.535 772.885C697.755 770.121 699.365 766.55 699.365 762.172V751.977H680.877C677.102 751.977 674.049 753.129 671.717 755.433C669.385 757.622 668.219 760.559 668.219 764.246C668.219 768.162 669.496 771.273 672.05 773.576C674.604 775.765 678.102 776.859 682.543 776.859Z" fill="black"/>
<path d="M804.561 795.867C795.345 795.867 787.961 792.526 782.41 785.845C776.858 779.163 774.082 770.121 774.082 758.716V734.525C774.082 723.236 776.858 714.251 782.41 707.57C787.961 700.773 795.345 697.375 804.561 697.375C812.112 697.375 818.052 699.679 822.383 704.286C826.713 708.779 828.878 715.115 828.878 723.294L823.049 717.246H828.878L828.045 693.919V668H853.028V794.139H828.878V775.996H823.049L828.878 769.948C828.878 778.127 826.713 784.52 822.383 789.128C818.052 793.62 812.112 795.867 804.561 795.867ZM813.555 773.404C818.108 773.404 821.661 772.079 824.215 769.429C826.768 766.665 828.045 762.806 828.045 757.852V735.389C828.045 730.436 826.768 726.634 824.215 723.985C821.661 721.22 818.108 719.838 813.555 719.838C808.892 719.838 805.283 721.22 802.729 723.985C800.286 726.634 799.065 730.436 799.065 735.389V757.852C799.065 762.806 800.286 766.665 802.729 769.429C805.283 772.079 808.892 773.404 813.555 773.404Z" fill="black"/>
<defs>
<filter id="filter0_d_114_15" x="151.607" y="80.4407" width="324.458" height="370.112" filterUnits="userSpaceOnUse" color-interpolation-filters="sRGB">
<feFlood flood-opacity="0" result="BackgroundImageFix"/>
<feColorMatrix in="SourceAlpha" type="matrix" values="0 0 0 0 0 0 0 0 0 0 0 0 0 0 0 0 0 0 127 0" result="hardAlpha"/>
<feOffset dy="4"/>
<feComposite in2="hardAlpha" operator="out"/>
<feColorMatrix type="matrix" values="0 0 0 0 0 0 0 0 0 0 0 0 0 0 0 0 0 0 1 0"/>
<feBlend mode="normal" in2="BackgroundImageFix" result="effect1_dropShadow_114_15"/>
<feBlend mode="normal" in="SourceGraphic" in2="effect1_dropShadow_114_15" result="shape"/>
</filter>
<filter id="filter1_d_114_15" x="211.291" y="87.5901" width="324.458" height="370.112" filterUnits="userSpaceOnUse" color-interpolation-filters="sRGB">
<feFlood flood-opacity="0" result="BackgroundImageFix"/>
<feColorMatrix in="SourceAlpha" type="matrix" values="0 0 0 0 0 0 0 0 0 0 0 0 0 0 0 0 0 0 127 0" result="hardAlpha"/>
<feOffset dy="4"/>
<feComposite in2="hardAlpha" operator="out"/>
<feColorMatrix type="matrix" values="0 0 0 0 0 0 0 0 0 0 0 0 0 0 0 0 0 0 1 0"/>
<feBlend mode="normal" in2="BackgroundImageFix" result="effect1_dropShadow_114_15"/>
<feBlend mode="normal" in="SourceGraphic" in2="effect1_dropShadow_114_15" result="shape"/>
</filter>
<filter id="filter2_d_114_15" x="261.958" y="101.03" width="324.458" height="370.112" filterUnits="userSpaceOnUse" color-interpolation-filters="sRGB">
<feFlood flood-opacity="0" result="BackgroundImageFix"/>
<feColorMatrix in="SourceAlpha" type="matrix" values="0 0 0 0 0 0 0 0 0 0 0 0 0 0 0 0 0 0 127 0" result="hardAlpha"/>
<feOffset dy="4"/>
<feComposite in2="hardAlpha" operator="out"/>
<feColorMatrix type="matrix" values="0 0 0 0 0 0 0 0 0 0 0 0 0 0 0 0 0 0 1 0"/>
<feBlend mode="normal" in2="BackgroundImageFix" result="effect1_dropShadow_114_15"/>
<feBlend mode="normal" in="SourceGraphic" in2="effect1_dropShadow_114_15" result="shape"/>
</filter>
<filter id="filter3_d_114_15" x="271.324" y="246.6" width="324.459" height="370.114" filterUnits="userSpaceOnUse" color-interpolation-filters="sRGB">
<feFlood flood-opacity="0" result="BackgroundImageFix"/>
<feColorMatrix in="SourceAlpha" type="matrix" values="0 0 0 0 0 0 0 0 0 0 0 0 0 0 0 0 0 0 127 0" result="hardAlpha"/>
<feOffset dy="4"/>
<feComposite in2="hardAlpha" operator="out"/>
<feColorMatrix type="matrix" values="0 0 0 0 0 0 0 0 0 0 0 0 0 0 0 0 0 0 1 0"/>
<feBlend mode="normal" in2="BackgroundImageFix" result="effect1_dropShadow_114_15"/>
<feBlend mode="normal" in="SourceGraphic" in2="effect1_dropShadow_114_15" result="shape"/>
</filter>
<filter id="filter4_d_114_15" x="331.008" y="253.755" width="324.459" height="370.114" filterUnits="userSpaceOnUse" color-interpolation-filters="sRGB">
<feFlood flood-opacity="0" result="BackgroundImageFix"/>
<feColorMatrix in="SourceAlpha" type="matrix" values="0 0 0 0 0 0 0 0 0 0 0 0 0 0 0 0 0 0 127 0" result="hardAlpha"/>
<feOffset dy="4"/>
<feComposite in2="hardAlpha" operator="out"/>
<feColorMatrix type="matrix" values="0 0 0 0 0 0 0 0 0 0 0 0 0 0 0 0 0 0 1 0"/>
<feBlend mode="normal" in2="BackgroundImageFix" result="effect1_dropShadow_114_15"/>
<feBlend mode="normal" in="SourceGraphic" in2="effect1_dropShadow_114_15" result="shape"/>
</filter>
<filter id="filter5_d_114_15" x="381.674" y="267.187" width="324.459" height="370.114" filterUnits="userSpaceOnUse" color-interpolation-filters="sRGB">
<feFlood flood-opacity="0" result="BackgroundImageFix"/>
<feColorMatrix in="SourceAlpha" type="matrix" values="0 0 0 0 0 0 0 0 0 0 0 0 0 0 0 0 0 0 127 0" result="hardAlpha"/>
<feOffset dy="4"/>
<feComposite in2="hardAlpha" operator="out"/>
<feColorMatrix type="matrix" values="0 0 0 0 0 0 0 0 0 0 0 0 0 0 0 0 0 0 1 0"/>
<feBlend mode="normal" in2="BackgroundImageFix" result="effect1_dropShadow_114_15"/>
<feBlend mode="normal" in="SourceGraphic" in2="effect1_dropShadow_114_15" result="shape"/>
</filter>
</defs>
</svg>
