<svg width="714" height="714" viewBox="0 0 714 714" fill="none" xmlns="http://www.w3.org/2000/svg">
<g filter="url(#filter0_d_126_4)">
<path d="M249.57 395.848L157.435 436.834L157.432 436.835C156.584 437.212 156.159 437.401 155.765 437.569C138.021 445.101 117.492 441.816 102.983 429.122C102.661 428.84 102.316 428.528 101.626 427.903C101.058 427.389 100.774 427.131 100.51 426.885C88.6982 415.875 82.9403 399.878 85.0466 383.925C85.0938 383.567 85.1492 383.19 85.2601 382.434L109.336 218.48L326.294 92.0101C344.517 81.3876 367.581 83.8013 383.226 97.9682C395.126 108.745 400.869 124.7 398.545 140.529L380.753 261.693C377.966 280.672 355.013 288.824 340.744 275.902C334.726 270.453 331.873 262.353 333.157 254.366L349.322 153.828C350.154 148.308 351.439 142.886 353.177 137.561C353.264 137.295 353.35 137.033 353.436 136.773C354.231 134.369 350.411 131.678 348.422 133.254C344.147 136.283 339.691 138.834 335.055 140.909L240.11 184.772L141.539 358.017C139.566 361.484 138.58 363.218 137.862 364.7C136.8 366.893 136.989 366.454 136.125 368.731C135.541 370.271 134.016 375.267 130.966 385.258L130.965 385.26C130.774 385.885 130.577 386.509 130.374 387.132C130.294 387.376 130.215 387.617 130.136 387.856C129.338 390.273 133.364 393.201 135.446 391.726C139.51 388.506 143.86 385.859 148.495 383.784L227.319 347.369C237.087 342.857 248.631 344.62 256.608 351.844C270.888 364.775 267.17 388.019 249.57 395.848Z" fill="url(#paint0_radial_126_4)"/>
<path d="M249.57 395.848L157.435 436.834L157.432 436.835C156.584 437.212 156.159 437.401 155.765 437.569C138.021 445.101 117.492 441.816 102.983 429.122C102.661 428.84 102.316 428.528 101.626 427.903C101.058 427.389 100.774 427.131 100.51 426.885C88.6982 415.875 82.9403 399.878 85.0466 383.925C85.0938 383.567 85.1492 383.19 85.2601 382.434L109.336 218.48L326.294 92.0101C344.517 81.3876 367.581 83.8013 383.226 97.9682C395.126 108.745 400.869 124.7 398.545 140.529L380.753 261.693C377.966 280.672 355.013 288.824 340.744 275.902C334.726 270.453 331.873 262.353 333.157 254.366L349.322 153.828C350.154 148.308 351.439 142.886 353.177 137.561C353.264 137.295 353.35 137.033 353.436 136.773C354.231 134.369 350.411 131.678 348.422 133.254C344.147 136.283 339.691 138.834 335.055 140.909L240.11 184.772L141.539 358.017C139.566 361.484 138.58 363.218 137.862 364.7C136.8 366.893 136.989 366.454 136.125 368.731C135.541 370.271 134.016 375.267 130.966 385.258L130.965 385.26C130.774 385.885 130.577 386.509 130.374 387.132C130.294 387.376 130.215 387.617 130.136 387.856C129.338 390.273 133.364 393.201 135.446 391.726C139.51 388.506 143.86 385.859 148.495 383.784L227.319 347.369C237.087 342.857 248.631 344.62 256.608 351.844C270.888 364.775 267.17 388.019 249.57 395.848Z" fill="url(#paint1_angular_126_4)" style="mix-blend-mode:screen"/>
<path d="M109.336 218.48L85.2601 382.434C85.1492 383.19 85.0938 383.567 85.0466 383.925C82.9403 399.878 88.6982 415.875 100.51 426.885C100.774 427.131 101.058 427.389 101.626 427.903V427.903C102.316 428.528 102.661 428.84 102.983 429.122C117.492 441.816 138.021 445.101 155.765 437.569C156.159 437.401 156.585 437.212 157.435 436.834L249.57 395.848C267.17 388.019 270.888 364.775 256.608 351.844V351.844C248.631 344.62 237.087 342.857 227.319 347.369L148.495 383.784C143.86 385.859 139.51 388.506 135.446 391.726V391.726C133.364 393.201 129.338 390.273 130.136 387.856C130.215 387.617 130.294 387.376 130.374 387.132C130.577 386.509 130.774 385.885 130.965 385.26C134.016 375.267 135.541 370.271 136.125 368.731C136.989 366.454 136.8 366.893 137.862 364.7C138.58 363.218 139.566 361.484 141.539 358.017L240.11 184.772M109.336 218.48L240.11 184.772M109.336 218.48L326.294 92.0101C344.517 81.3876 367.581 83.8013 383.226 97.9682V97.9682C395.126 108.745 400.869 124.7 398.545 140.529L380.753 261.693C377.966 280.672 355.013 288.823 340.744 275.902V275.902C334.726 270.453 331.873 262.353 333.157 254.366L349.322 153.828C350.154 148.308 351.439 142.886 353.177 137.561C353.264 137.295 353.35 137.033 353.436 136.774C354.231 134.369 350.411 131.678 348.422 133.254V133.254C344.147 136.283 339.691 138.834 335.055 140.909L240.11 184.772" stroke="url(#paint2_linear_126_4)" stroke-width="10"/>
</g>
<g filter="url(#filter1_d_126_4)">
<path d="M309.252 402.998L217.118 443.984L217.115 443.985C216.266 444.362 215.842 444.551 215.448 444.718C197.704 452.251 177.175 448.966 162.666 436.272C162.344 435.99 161.999 435.677 161.309 435.053L161.309 435.052C160.741 434.538 160.457 434.281 160.192 434.034C148.381 423.024 142.623 407.027 144.729 391.074C144.777 390.717 144.832 390.339 144.943 389.584L169.019 225.63L385.977 99.1596C404.2 88.537 427.264 90.9508 442.909 105.118C454.809 115.894 460.552 131.85 458.228 147.678L440.436 268.843C437.649 287.822 414.696 295.973 400.427 283.052C394.409 277.602 391.556 269.503 392.84 261.516L409.005 160.978C409.836 155.458 411.121 150.035 412.86 144.71C412.947 144.445 413.033 144.182 413.119 143.923C413.914 141.519 410.094 138.828 408.105 140.404C403.83 143.432 399.374 145.984 394.738 148.058L299.793 191.921L201.222 365.167C199.249 368.634 198.263 370.367 197.545 371.85C196.483 374.043 196.672 373.603 195.808 375.881C195.224 377.421 193.699 382.417 190.648 392.408L190.648 392.409C190.457 393.035 190.26 393.659 190.056 394.282C189.977 394.526 189.898 394.767 189.819 395.005C189.021 397.423 193.047 400.351 195.129 398.876C199.193 395.656 203.542 393.008 208.178 390.934L287.002 354.519C296.77 350.006 308.314 351.77 316.291 358.994C330.57 371.925 326.853 395.169 309.252 402.998Z" fill="url(#paint3_radial_126_4)"/>
<path d="M309.252 402.998L217.118 443.984L217.115 443.985C216.266 444.362 215.842 444.551 215.448 444.718C197.704 452.251 177.175 448.966 162.666 436.272C162.344 435.99 161.999 435.677 161.309 435.053L161.309 435.052C160.741 434.538 160.457 434.281 160.192 434.034C148.381 423.024 142.623 407.027 144.729 391.074C144.777 390.717 144.832 390.339 144.943 389.584L169.019 225.63L385.977 99.1596C404.2 88.537 427.264 90.9508 442.909 105.118C454.809 115.894 460.552 131.85 458.228 147.678L440.436 268.843C437.649 287.822 414.696 295.973 400.427 283.052C394.409 277.602 391.556 269.503 392.84 261.516L409.005 160.978C409.836 155.458 411.121 150.035 412.86 144.71C412.947 144.445 413.033 144.182 413.119 143.923C413.914 141.519 410.094 138.828 408.105 140.404C403.83 143.432 399.374 145.984 394.738 148.058L299.793 191.921L201.222 365.167C199.249 368.634 198.263 370.367 197.545 371.85C196.483 374.043 196.672 373.603 195.808 375.881C195.224 377.421 193.699 382.417 190.648 392.408L190.648 392.409C190.457 393.035 190.26 393.659 190.056 394.282C189.977 394.526 189.898 394.767 189.819 395.005C189.021 397.423 193.047 400.351 195.129 398.876C199.193 395.656 203.542 393.008 208.178 390.934L287.002 354.519C296.77 350.006 308.314 351.77 316.291 358.994C330.57 371.925 326.853 395.169 309.252 402.998Z" fill="url(#paint4_angular_126_4)" style="mix-blend-mode:screen"/>
<path d="M169.019 225.63L144.943 389.584C144.832 390.339 144.777 390.717 144.729 391.074C142.623 407.027 148.381 423.024 160.192 434.034C160.457 434.281 160.741 434.538 161.309 435.052V435.052C161.999 435.677 162.344 435.99 162.666 436.272C177.175 448.966 197.704 452.251 215.448 444.718C215.842 444.551 216.267 444.362 217.118 443.984L309.252 402.998C326.853 395.169 330.57 371.925 316.291 358.994V358.994C308.314 351.77 296.77 350.006 287.002 354.519L208.178 390.934C203.542 393.008 199.193 395.656 195.129 398.876V398.876C193.047 400.351 189.021 397.423 189.819 395.005C189.898 394.767 189.977 394.526 190.056 394.282C190.26 393.659 190.457 393.035 190.648 392.409C193.698 382.417 195.224 377.421 195.808 375.881C196.672 373.603 196.483 374.043 197.545 371.85C198.263 370.367 199.249 368.634 201.222 365.167L299.793 191.921M169.019 225.63L299.793 191.921M169.019 225.63L385.977 99.1596C404.2 88.537 427.264 90.9508 442.909 105.118V105.118C454.809 115.894 460.552 131.85 458.228 147.678L440.436 268.843C437.649 287.822 414.696 295.973 400.427 283.052V283.052C394.409 277.602 391.556 269.503 392.84 261.516L409.005 160.978C409.836 155.458 411.121 150.035 412.86 144.71C412.947 144.445 413.033 144.182 413.119 143.923C413.914 141.519 410.094 138.828 408.105 140.404V140.404C403.83 143.432 399.374 145.984 394.738 148.058L299.793 191.921" stroke="url(#paint5_linear_126_4)" stroke-width="10"/>
</g>
<g filter="url(#filter2_d_126_4)">
<path d="M359.92 416.437L267.785 457.423L267.782 457.424C266.934 457.802 266.509 457.991 266.115 458.158C248.372 465.691 227.842 462.405 213.334 449.711C213.011 449.429 212.666 449.117 211.977 448.492L211.976 448.492C211.408 447.978 211.125 447.721 210.86 447.474C199.049 436.464 193.291 420.467 195.397 404.514C195.444 404.156 195.5 403.779 195.61 403.023L219.686 239.069L436.644 112.599C454.867 101.976 477.932 104.39 493.576 118.557C505.477 129.334 511.22 145.289 508.895 161.118L491.103 282.282C488.316 301.261 465.363 309.413 451.094 296.491C445.076 291.042 442.223 282.942 443.507 274.955L459.673 174.417C460.504 168.897 461.789 163.475 463.528 158.15C463.614 157.884 463.701 157.622 463.786 157.362C464.581 154.958 460.761 152.267 458.772 153.843C454.497 156.872 450.042 159.423 445.406 161.498L350.46 205.361L251.889 378.606C249.917 382.073 248.93 383.807 248.212 385.289C247.15 387.482 247.34 387.043 246.475 389.32C245.891 390.86 244.366 395.856 241.316 405.847L241.316 405.849C241.125 406.474 240.927 407.099 240.724 407.722C240.644 407.965 240.565 408.206 240.486 408.445C239.688 410.862 243.714 413.79 245.796 412.315C249.86 409.095 254.21 406.448 258.846 404.373L337.669 367.959C347.437 363.446 358.981 365.21 366.958 372.433C381.238 385.364 377.52 408.608 359.92 416.437Z" fill="url(#paint6_radial_126_4)"/>
<path d="M359.92 416.437L267.785 457.423L267.782 457.424C266.934 457.802 266.509 457.991 266.115 458.158C248.372 465.691 227.842 462.405 213.334 449.711C213.011 449.429 212.666 449.117 211.977 448.492L211.976 448.492C211.408 447.978 211.125 447.721 210.86 447.474C199.049 436.464 193.291 420.467 195.397 404.514C195.444 404.156 195.5 403.779 195.61 403.023L219.686 239.069L436.644 112.599C454.867 101.976 477.932 104.39 493.576 118.557C505.477 129.334 511.22 145.289 508.895 161.118L491.103 282.282C488.316 301.261 465.363 309.413 451.094 296.491C445.076 291.042 442.223 282.942 443.507 274.955L459.673 174.417C460.504 168.897 461.789 163.475 463.528 158.15C463.614 157.884 463.701 157.622 463.786 157.362C464.581 154.958 460.761 152.267 458.772 153.843C454.497 156.872 450.042 159.423 445.406 161.498L350.46 205.361L251.889 378.606C249.917 382.073 248.93 383.807 248.212 385.289C247.15 387.482 247.34 387.043 246.475 389.32C245.891 390.86 244.366 395.856 241.316 405.847L241.316 405.849C241.125 406.474 240.927 407.099 240.724 407.722C240.644 407.965 240.565 408.206 240.486 408.445C239.688 410.862 243.714 413.79 245.796 412.315C249.86 409.095 254.21 406.448 258.846 404.373L337.669 367.959C347.437 363.446 358.981 365.21 366.958 372.433C381.238 385.364 377.52 408.608 359.92 416.437Z" fill="url(#paint7_angular_126_4)" style="mix-blend-mode:screen"/>
<path d="M219.686 239.069L195.61 403.023C195.5 403.779 195.444 404.156 195.397 404.514C193.291 420.467 199.049 436.464 210.86 447.474C211.125 447.721 211.408 447.978 211.976 448.492V448.492C212.666 449.117 213.011 449.429 213.334 449.711C227.842 462.405 248.372 465.691 266.115 458.158C266.51 457.99 266.935 457.801 267.785 457.423L359.92 416.437C377.52 408.608 381.238 385.364 366.958 372.433V372.433C358.981 365.21 347.437 363.446 337.669 367.959L258.846 404.373C254.21 406.448 249.86 409.095 245.796 412.315V412.315C243.714 413.79 239.688 410.862 240.486 408.445C240.565 408.206 240.644 407.965 240.724 407.722C240.927 407.099 241.125 406.474 241.316 405.849C244.366 395.856 245.891 390.86 246.475 389.32C247.34 387.043 247.15 387.482 248.212 385.289C248.93 383.807 249.917 382.073 251.889 378.606L350.46 205.361M219.686 239.069L350.46 205.361M219.686 239.069L436.644 112.599C454.867 101.976 477.932 104.39 493.576 118.557V118.557C505.477 129.334 511.22 145.289 508.895 161.118L491.103 282.282C488.316 301.261 465.363 309.413 451.094 296.491V296.491C445.076 291.042 442.223 282.942 443.507 274.955L459.673 174.417C460.504 168.897 461.789 163.475 463.528 158.15C463.614 157.884 463.701 157.622 463.786 157.362C464.581 154.958 460.761 152.267 458.772 153.843V153.843C454.497 156.872 450.042 159.423 445.406 161.498L350.46 205.361" stroke="url(#paint8_linear_126_4)" stroke-width="10"/>
</g>
<g filter="url(#filter3_d_126_4)">
<path d="M353.82 297.304L445.955 256.318L445.958 256.317C446.807 255.94 447.231 255.751 447.625 255.583C465.369 248.051 485.898 251.336 500.407 264.03C500.729 264.312 501.074 264.625 501.764 265.25C502.332 265.764 502.616 266.021 502.881 266.268C514.692 277.278 520.45 293.275 518.344 309.228C518.297 309.585 518.241 309.963 518.13 310.718L518.13 310.718L494.054 474.674L277.095 601.144C258.872 611.767 235.807 609.353 220.163 595.186C208.262 584.409 202.519 568.454 204.844 552.625L222.636 431.46C225.423 412.481 248.376 404.33 262.645 417.251C268.663 422.7 271.516 430.8 270.232 438.787L254.067 539.326C253.235 544.846 251.95 550.268 250.211 555.593C250.125 555.859 250.039 556.121 249.953 556.381C249.158 558.785 252.978 561.476 254.967 559.9C259.242 556.871 263.698 554.32 268.333 552.245L363.28 508.382L461.851 335.135C463.824 331.669 464.81 329.935 465.528 328.453C466.59 326.26 466.401 326.699 467.265 324.421C467.849 322.882 469.374 317.886 472.424 307.896L472.425 307.893C472.616 307.267 472.813 306.643 473.017 306.02C473.096 305.776 473.175 305.535 473.254 305.297C474.052 302.879 470.026 299.951 467.944 301.427C463.88 304.647 459.53 307.294 454.895 309.368L376.071 345.783C366.303 350.296 354.759 348.532 346.782 341.309C332.502 328.377 336.219 305.134 353.82 297.304Z" fill="url(#paint9_radial_126_4)"/>
<path d="M353.82 297.304L445.955 256.318L445.958 256.317C446.807 255.94 447.231 255.751 447.625 255.583C465.369 248.051 485.898 251.336 500.407 264.03C500.729 264.312 501.074 264.625 501.764 265.25C502.332 265.764 502.616 266.021 502.881 266.268C514.692 277.278 520.45 293.275 518.344 309.228C518.297 309.585 518.241 309.963 518.13 310.718L518.13 310.718L494.054 474.674L277.095 601.144C258.872 611.767 235.807 609.353 220.163 595.186C208.262 584.409 202.519 568.454 204.844 552.625L222.636 431.46C225.423 412.481 248.376 404.33 262.645 417.251C268.663 422.7 271.516 430.8 270.232 438.787L254.067 539.326C253.235 544.846 251.95 550.268 250.211 555.593C250.125 555.859 250.039 556.121 249.953 556.381C249.158 558.785 252.978 561.476 254.967 559.9C259.242 556.871 263.698 554.32 268.333 552.245L363.28 508.382L461.851 335.135C463.824 331.669 464.81 329.935 465.528 328.453C466.59 326.26 466.401 326.699 467.265 324.421C467.849 322.882 469.374 317.886 472.424 307.896L472.425 307.893C472.616 307.267 472.813 306.643 473.017 306.02C473.096 305.776 473.175 305.535 473.254 305.297C474.052 302.879 470.026 299.951 467.944 301.427C463.88 304.647 459.53 307.294 454.895 309.368L376.071 345.783C366.303 350.296 354.759 348.532 346.782 341.309C332.502 328.377 336.219 305.134 353.82 297.304Z" fill="url(#paint10_angular_126_4)" style="mix-blend-mode:screen"/>
<path d="M494.054 474.674L518.13 310.718C518.241 309.963 518.297 309.585 518.344 309.228C520.45 293.275 514.692 277.278 502.881 266.268C502.616 266.021 502.332 265.764 501.764 265.25V265.25C501.074 264.625 500.729 264.312 500.407 264.03C485.898 251.336 465.369 248.051 447.625 255.583C447.231 255.751 446.806 255.94 445.955 256.318L353.82 297.304C336.219 305.134 332.502 328.377 346.782 341.309V341.309C354.759 348.532 366.303 350.296 376.071 345.783L454.895 309.368C459.53 307.294 463.88 304.647 467.944 301.427V301.427C470.026 299.951 474.052 302.879 473.254 305.297C473.175 305.535 473.096 305.776 473.017 306.02C472.813 306.643 472.616 307.267 472.425 307.893C469.375 317.885 467.849 322.881 467.265 324.421C466.401 326.699 466.59 326.26 465.528 328.453C464.81 329.935 463.824 331.669 461.851 335.135L363.28 508.382M494.054 474.674L363.28 508.382M494.054 474.674L277.095 601.144C258.872 611.767 235.807 609.353 220.163 595.186V595.186C208.262 584.409 202.519 568.454 204.844 552.625L222.636 431.46C225.423 412.481 248.376 404.33 262.645 417.251V417.251C268.663 422.7 271.516 430.8 270.232 438.787L254.067 539.326C253.235 544.846 251.95 550.268 250.211 555.593C250.125 555.859 250.039 556.121 249.953 556.381C249.158 558.785 252.978 561.476 254.967 559.9V559.9C259.242 556.871 263.698 554.32 268.333 552.245L363.28 508.382" stroke="url(#paint11_linear_126_4)" stroke-width="10"/>
</g>
<g filter="url(#filter4_d_126_4)">
<path d="M413.504 304.459L505.639 263.473L505.642 263.472C506.491 263.095 506.916 262.906 507.31 262.738C525.053 255.206 545.582 258.491 560.091 271.185C560.413 271.467 560.758 271.78 561.448 272.405C562.016 272.919 562.3 273.176 562.565 273.423C574.376 284.433 580.134 300.43 578.028 316.383C577.981 316.74 577.925 317.118 577.814 317.873L577.814 317.873L553.739 481.829L336.779 608.299C318.556 618.922 295.491 616.508 279.847 602.341C267.946 591.564 262.203 575.609 264.528 559.78L282.32 438.615C285.107 419.636 308.06 411.485 322.329 424.406C328.347 429.855 331.2 437.955 329.916 445.942L313.751 546.481C312.919 552.001 311.634 557.423 309.896 562.748C309.809 563.014 309.723 563.276 309.637 563.536C308.842 565.94 312.662 568.631 314.651 567.055C318.926 564.026 323.382 561.475 328.017 559.4L422.964 515.537L521.535 342.29C523.508 338.824 524.494 337.09 525.212 335.608C526.274 333.415 526.085 333.854 526.949 331.576C527.533 330.037 529.058 325.041 532.108 315.051L532.109 315.048C532.3 314.422 532.497 313.798 532.701 313.175C532.78 312.931 532.859 312.69 532.938 312.452C533.736 310.034 529.71 307.106 527.628 308.582C523.564 311.802 519.215 314.449 514.579 316.523L435.755 352.938C425.987 357.451 414.443 355.687 406.466 348.464C392.186 335.532 395.904 312.289 413.504 304.459Z" fill="url(#paint12_radial_126_4)"/>
<path d="M413.504 304.459L505.639 263.473L505.642 263.472C506.491 263.095 506.916 262.906 507.31 262.738C525.053 255.206 545.582 258.491 560.091 271.185C560.413 271.467 560.758 271.78 561.448 272.405C562.016 272.919 562.3 273.176 562.565 273.423C574.376 284.433 580.134 300.43 578.028 316.383C577.981 316.74 577.925 317.118 577.814 317.873L577.814 317.873L553.739 481.829L336.779 608.299C318.556 618.922 295.491 616.508 279.847 602.341C267.946 591.564 262.203 575.609 264.528 559.78L282.32 438.615C285.107 419.636 308.06 411.485 322.329 424.406C328.347 429.855 331.2 437.955 329.916 445.942L313.751 546.481C312.919 552.001 311.634 557.423 309.896 562.748C309.809 563.014 309.723 563.276 309.637 563.536C308.842 565.94 312.662 568.631 314.651 567.055C318.926 564.026 323.382 561.475 328.017 559.4L422.964 515.537L521.535 342.29C523.508 338.824 524.494 337.09 525.212 335.608C526.274 333.415 526.085 333.854 526.949 331.576C527.533 330.037 529.058 325.041 532.108 315.051L532.109 315.048C532.3 314.422 532.497 313.798 532.701 313.175C532.78 312.931 532.859 312.69 532.938 312.452C533.736 310.034 529.71 307.106 527.628 308.582C523.564 311.802 519.215 314.449 514.579 316.523L435.755 352.938C425.987 357.451 414.443 355.687 406.466 348.464C392.186 335.532 395.904 312.289 413.504 304.459Z" fill="url(#paint13_angular_126_4)" style="mix-blend-mode:screen"/>
<path d="M553.739 481.829L577.814 317.873C577.925 317.118 577.981 316.74 578.028 316.383C580.134 300.43 574.376 284.433 562.565 273.423C562.3 273.176 562.016 272.919 561.448 272.405V272.405C560.758 271.78 560.413 271.467 560.091 271.185C545.582 258.491 525.053 255.206 507.31 262.738C506.915 262.906 506.49 263.095 505.639 263.473L413.504 304.459C395.904 312.289 392.186 335.532 406.466 348.464V348.464C414.443 355.687 425.987 357.451 435.755 352.938L514.579 316.523C519.214 314.449 523.564 311.802 527.628 308.582V308.582C529.71 307.106 533.736 310.034 532.938 312.452C532.859 312.69 532.78 312.931 532.701 313.175C532.497 313.798 532.3 314.422 532.109 315.048C529.059 325.04 527.533 330.036 526.949 331.576C526.085 333.854 526.274 333.415 525.212 335.608C524.494 337.09 523.508 338.824 521.535 342.29L422.964 515.537M553.739 481.829L422.964 515.537M553.739 481.829L336.779 608.299C318.556 618.922 295.491 616.508 279.847 602.341V602.341C267.946 591.564 262.203 575.609 264.528 559.78L282.32 438.615C285.107 419.636 308.06 411.485 322.329 424.406V424.406C328.347 429.855 331.2 437.955 329.916 445.942L313.751 546.481C312.919 552.001 311.634 557.423 309.896 562.748C309.809 563.014 309.723 563.276 309.637 563.536C308.842 565.94 312.662 568.631 314.651 567.055V567.055C318.926 564.026 323.382 561.475 328.017 559.4L422.964 515.537" stroke="url(#paint14_linear_126_4)" stroke-width="10"/>
</g>
<g filter="url(#filter5_d_126_4)">
<path d="M464.17 317.891L556.305 276.906L556.308 276.904C557.157 276.527 557.582 276.338 557.976 276.171C575.719 268.638 596.248 271.923 610.757 284.617C611.079 284.899 611.424 285.212 612.114 285.837C612.682 286.351 612.966 286.608 613.231 286.855C625.042 297.865 630.8 313.862 628.694 329.815C628.647 330.172 628.591 330.55 628.48 331.305L628.48 331.305L604.405 495.261L387.445 621.731C369.222 632.354 346.157 629.94 330.513 615.773C318.612 604.996 312.869 589.041 315.194 573.212L332.986 452.047C335.773 433.068 358.726 424.917 372.995 437.838C379.013 443.288 381.866 451.387 380.582 459.374L364.417 559.913C363.585 565.433 362.3 570.855 360.562 576.181C360.475 576.446 360.389 576.708 360.303 576.968C359.508 579.372 363.328 582.063 365.317 580.487C369.592 577.459 374.048 574.907 378.683 572.832L473.63 528.969L572.201 355.723C574.174 352.256 575.16 350.522 575.878 349.04C576.94 346.847 576.751 347.286 577.615 345.009C578.199 343.469 579.724 338.473 582.774 328.483L582.775 328.48C582.966 327.855 583.163 327.23 583.367 326.607C583.446 326.364 583.525 326.122 583.604 325.884C584.402 323.466 580.376 320.539 578.294 322.014C574.23 325.234 569.881 327.881 565.245 329.956L486.421 366.37C476.653 370.883 465.109 369.119 457.132 361.896C442.852 348.965 446.57 325.721 464.17 317.891Z" fill="url(#paint15_radial_126_4)"/>
<path d="M464.17 317.891L556.305 276.906L556.308 276.904C557.157 276.527 557.582 276.338 557.976 276.171C575.719 268.638 596.248 271.923 610.757 284.617C611.079 284.899 611.424 285.212 612.114 285.837C612.682 286.351 612.966 286.608 613.231 286.855C625.042 297.865 630.8 313.862 628.694 329.815C628.647 330.172 628.591 330.55 628.48 331.305L628.48 331.305L604.405 495.261L387.445 621.731C369.222 632.354 346.157 629.94 330.513 615.773C318.612 604.996 312.869 589.041 315.194 573.212L332.986 452.047C335.773 433.068 358.726 424.917 372.995 437.838C379.013 443.288 381.866 451.387 380.582 459.374L364.417 559.913C363.585 565.433 362.3 570.855 360.562 576.181C360.475 576.446 360.389 576.708 360.303 576.968C359.508 579.372 363.328 582.063 365.317 580.487C369.592 577.459 374.048 574.907 378.683 572.832L473.63 528.969L572.201 355.723C574.174 352.256 575.16 350.522 575.878 349.04C576.94 346.847 576.751 347.286 577.615 345.009C578.199 343.469 579.724 338.473 582.774 328.483L582.775 328.48C582.966 327.855 583.163 327.23 583.367 326.607C583.446 326.364 583.525 326.122 583.604 325.884C584.402 323.466 580.376 320.539 578.294 322.014C574.23 325.234 569.881 327.881 565.245 329.956L486.421 366.37C476.653 370.883 465.109 369.119 457.132 361.896C442.852 348.965 446.57 325.721 464.17 317.891Z" fill="url(#paint16_angular_126_4)" style="mix-blend-mode:screen"/>
<path d="M604.405 495.261L628.48 331.305C628.591 330.55 628.647 330.172 628.694 329.815C630.8 313.862 625.042 297.865 613.231 286.855C612.966 286.608 612.682 286.351 612.114 285.837V285.837C611.424 285.212 611.079 284.899 610.757 284.617C596.248 271.923 575.719 268.638 557.976 276.171C557.581 276.338 557.156 276.527 556.305 276.906L464.17 317.891C446.57 325.721 442.852 348.965 457.132 361.896V361.896C465.109 369.119 476.653 370.883 486.421 366.37L565.245 329.956C569.881 327.881 574.23 325.234 578.294 322.014V322.014C580.376 320.539 584.402 323.466 583.604 325.884C583.525 326.122 583.446 326.364 583.367 326.607C583.163 327.23 582.966 327.855 582.775 328.48C579.725 338.472 578.199 343.469 577.615 345.008C576.751 347.286 576.94 346.847 575.878 349.04C575.16 350.522 574.174 352.256 572.201 355.723L473.63 528.969M604.405 495.261L473.63 528.969M604.405 495.261L387.445 621.731C369.222 632.354 346.157 629.94 330.513 615.773V615.773C318.612 604.996 312.869 589.041 315.194 573.212L332.986 452.047C335.773 433.068 358.726 424.917 372.995 437.838V437.838C379.013 443.288 381.866 451.387 380.582 459.374L364.417 559.913C363.585 565.433 362.3 570.855 360.562 576.181C360.475 576.446 360.389 576.708 360.303 576.968C359.508 579.372 363.328 582.063 365.317 580.487V580.487C369.592 577.459 374.048 574.907 378.683 572.832L473.63 528.969" stroke="url(#paint17_linear_126_4)" stroke-width="10"/>
</g>
<defs>
<filter id="filter0_d_126_4" x="79.6074" y="80.4407" width="324.458" height="370.112" filterUnits="userSpaceOnUse" color-interpolation-filters="sRGB">
<feFlood flood-opacity="0" result="BackgroundImageFix"/>
<feColorMatrix in="SourceAlpha" type="matrix" values="0 0 0 0 0 0 0 0 0 0 0 0 0 0 0 0 0 0 127 0" result="hardAlpha"/>
<feOffset dy="4"/>
<feComposite in2="hardAlpha" operator="out"/>
<feColorMatrix type="matrix" values="0 0 0 0 0 0 0 0 0 0 0 0 0 0 0 0 0 0 1 0"/>
<feBlend mode="normal" in2="BackgroundImageFix" result="effect1_dropShadow_126_4"/>
<feBlend mode="normal" in="SourceGraphic" in2="effect1_dropShadow_126_4" result="shape"/>
</filter>
<filter id="filter1_d_126_4" x="139.29" y="87.5901" width="324.458" height="370.112" filterUnits="userSpaceOnUse" color-interpolation-filters="sRGB">
<feFlood flood-opacity="0" result="BackgroundImageFix"/>
<feColorMatrix in="SourceAlpha" type="matrix" values="0 0 0 0 0 0 0 0 0 0 0 0 0 0 0 0 0 0 127 0" result="hardAlpha"/>
<feOffset dy="4"/>
<feComposite in2="hardAlpha" operator="out"/>
<feColorMatrix type="matrix" values="0 0 0 0 0 0 0 0 0 0 0 0 0 0 0 0 0 0 1 0"/>
<feBlend mode="normal" in2="BackgroundImageFix" result="effect1_dropShadow_126_4"/>
<feBlend mode="normal" in="SourceGraphic" in2="effect1_dropShadow_126_4" result="shape"/>
</filter>
<filter id="filter2_d_126_4" x="189.958" y="101.03" width="324.458" height="370.112" filterUnits="userSpaceOnUse" color-interpolation-filters="sRGB">
<feFlood flood-opacity="0" result="BackgroundImageFix"/>
<feColorMatrix in="SourceAlpha" type="matrix" values="0 0 0 0 0 0 0 0 0 0 0 0 0 0 0 0 0 0 127 0" result="hardAlpha"/>
<feOffset dy="4"/>
<feComposite in2="hardAlpha" operator="out"/>
<feColorMatrix type="matrix" values="0 0 0 0 0 0 0 0 0 0 0 0 0 0 0 0 0 0 1 0"/>
<feBlend mode="normal" in2="BackgroundImageFix" result="effect1_dropShadow_126_4"/>
<feBlend mode="normal" in="SourceGraphic" in2="effect1_dropShadow_126_4" result="shape"/>
</filter>
<filter id="filter3_d_126_4" x="199.324" y="246.6" width="324.459" height="370.114" filterUnits="userSpaceOnUse" color-interpolation-filters="sRGB">
<feFlood flood-opacity="0" result="BackgroundImageFix"/>
<feColorMatrix in="SourceAlpha" type="matrix" values="0 0 0 0 0 0 0 0 0 0 0 0 0 0 0 0 0 0 127 0" result="hardAlpha"/>
<feOffset dy="4"/>
<feComposite in2="hardAlpha" operator="out"/>
<feColorMatrix type="matrix" values="0 0 0 0 0 0 0 0 0 0 0 0 0 0 0 0 0 0 1 0"/>
<feBlend mode="normal" in2="BackgroundImageFix" result="effect1_dropShadow_126_4"/>
<feBlend mode="normal" in="SourceGraphic" in2="effect1_dropShadow_126_4" result="shape"/>
</filter>
<filter id="filter4_d_126_4" x="259.008" y="253.755" width="324.459" height="370.114" filterUnits="userSpaceOnUse" color-interpolation-filters="sRGB">
<feFlood flood-opacity="0" result="BackgroundImageFix"/>
<feColorMatrix in="SourceAlpha" type="matrix" values="0 0 0 0 0 0 0 0 0 0 0 0 0 0 0 0 0 0 127 0" result="hardAlpha"/>
<feOffset dy="4"/>
<feComposite in2="hardAlpha" operator="out"/>
<feColorMatrix type="matrix" values="0 0 0 0 0 0 0 0 0 0 0 0 0 0 0 0 0 0 1 0"/>
<feBlend mode="normal" in2="BackgroundImageFix" result="effect1_dropShadow_126_4"/>
<feBlend mode="normal" in="SourceGraphic" in2="effect1_dropShadow_126_4" result="shape"/>
</filter>
<filter id="filter5_d_126_4" x="309.674" y="267.187" width="324.459" height="370.114" filterUnits="userSpaceOnUse" color-interpolation-filters="sRGB">
<feFlood flood-opacity="0" result="BackgroundImageFix"/>
<feColorMatrix in="SourceAlpha" type="matrix" values="0 0 0 0 0 0 0 0 0 0 0 0 0 0 0 0 0 0 127 0" result="hardAlpha"/>
<feOffset dy="4"/>
<feComposite in2="hardAlpha" operator="out"/>
<feColorMatrix type="matrix" values="0 0 0 0 0 0 0 0 0 0 0 0 0 0 0 0 0 0 1 0"/>
<feBlend mode="normal" in2="BackgroundImageFix" result="effect1_dropShadow_126_4"/>
<feBlend mode="normal" in="SourceGraphic" in2="effect1_dropShadow_126_4" result="shape"/>
</filter>
<radialGradient id="paint0_radial_126_4" cx="0" cy="0" r="1" gradientUnits="userSpaceOnUse" gradientTransform="translate(135.924 213.648) rotate(39.8725) scale(230.041 405.326)">
<stop stop-color="#CC00FF"/>
<stop offset="0.229167" stop-color="#DAFF00"/>
<stop offset="0.46875" stop-color="#FF00FF"/>
<stop offset="0.682292" stop-color="#ABB3FC"/>
<stop offset="0.875" stop-color="#5DF7A4"/>
<stop offset="1" stop-color="#58C4F6"/>
</radialGradient>
<radialGradient id="paint1_angular_126_4" cx="0" cy="0" r="1" gradientUnits="userSpaceOnUse" gradientTransform="translate(244.432 266.057) rotate(47.4221) scale(117.854 215.35)">
<stop offset="0.000690214" stop-color="white"/>
<stop offset="0.140625"/>
<stop offset="0.144348"/>
<stop offset="0.244792" stop-color="white"/>
<stop offset="0.395833"/>
<stop offset="0.546875" stop-color="white"/>
<stop offset="0.713542"/>
<stop offset="0.833333" stop-color="white"/>
<stop offset="0.931117"/>
<stop offset="0.931504"/>
</radialGradient>
<linearGradient id="paint2_linear_126_4" x1="575.302" y1="205.948" x2="142.762" y2="52.2606" gradientUnits="userSpaceOnUse">
<stop/>
<stop offset="0.994811"/>
</linearGradient>
<radialGradient id="paint3_radial_126_4" cx="0" cy="0" r="1" gradientUnits="userSpaceOnUse" gradientTransform="translate(195.607 220.798) rotate(39.8726) scale(230.041 405.326)">
<stop stop-color="#CC00FF"/>
<stop offset="0.229167" stop-color="#DAFF00"/>
<stop offset="0.46875" stop-color="#FF00FF"/>
<stop offset="0.682292" stop-color="#ABB3FC"/>
<stop offset="0.875" stop-color="#5DF7A4"/>
<stop offset="1" stop-color="#58C4F6"/>
</radialGradient>
<radialGradient id="paint4_angular_126_4" cx="0" cy="0" r="1" gradientUnits="userSpaceOnUse" gradientTransform="translate(304.114 273.207) rotate(47.4222) scale(117.854 215.35)">
<stop offset="0.000690214" stop-color="white"/>
<stop offset="0.140625"/>
<stop offset="0.144348"/>
<stop offset="0.244792" stop-color="white"/>
<stop offset="0.395833"/>
<stop offset="0.546875" stop-color="white"/>
<stop offset="0.713542"/>
<stop offset="0.833333" stop-color="white"/>
<stop offset="0.931117"/>
<stop offset="0.931504"/>
</radialGradient>
<linearGradient id="paint5_linear_126_4" x1="634.984" y1="213.098" x2="202.446" y2="59.4102" gradientUnits="userSpaceOnUse">
<stop/>
<stop offset="0.994811"/>
</linearGradient>
<radialGradient id="paint6_radial_126_4" cx="0" cy="0" r="1" gradientUnits="userSpaceOnUse" gradientTransform="translate(246.275 234.237) rotate(39.8726) scale(230.041 405.326)">
<stop stop-color="#CC00FF"/>
<stop offset="0.229167" stop-color="#DAFF00"/>
<stop offset="0.46875" stop-color="#FF00FF"/>
<stop offset="0.682292" stop-color="#ABB3FC"/>
<stop offset="0.875" stop-color="#5DF7A4"/>
<stop offset="1" stop-color="#58C4F6"/>
</radialGradient>
<radialGradient id="paint7_angular_126_4" cx="0" cy="0" r="1" gradientUnits="userSpaceOnUse" gradientTransform="translate(354.782 286.646) rotate(47.4222) scale(117.854 215.35)">
<stop offset="0.000690214" stop-color="white"/>
<stop offset="0.140625"/>
<stop offset="0.144348"/>
<stop offset="0.244792" stop-color="white"/>
<stop offset="0.395833"/>
<stop offset="0.546875" stop-color="white"/>
<stop offset="0.713542"/>
<stop offset="0.833333" stop-color="white"/>
<stop offset="0.931117"/>
<stop offset="0.931504"/>
</radialGradient>
<linearGradient id="paint8_linear_126_4" x1="685.652" y1="226.537" x2="253.113" y2="72.8497" gradientUnits="userSpaceOnUse">
<stop/>
<stop offset="0.994811"/>
</linearGradient>
<radialGradient id="paint9_radial_126_4" cx="0" cy="0" r="1" gradientUnits="userSpaceOnUse" gradientTransform="translate(467.466 479.505) rotate(-140.127) scale(230.042 405.329)">
<stop stop-color="#CC00FF"/>
<stop offset="0.229167" stop-color="#DAFF00"/>
<stop offset="0.46875" stop-color="#FF00FF"/>
<stop offset="0.682292" stop-color="#ABB3FC"/>
<stop offset="0.875" stop-color="#5DF7A4"/>
<stop offset="1" stop-color="#58C4F6"/>
</radialGradient>
<radialGradient id="paint10_angular_126_4" cx="0" cy="0" r="1" gradientUnits="userSpaceOnUse" gradientTransform="translate(358.958 427.096) rotate(-132.578) scale(117.854 215.351)">
<stop offset="0.000690214" stop-color="white"/>
<stop offset="0.140625"/>
<stop offset="0.144348"/>
<stop offset="0.244792" stop-color="white"/>
<stop offset="0.395833"/>
<stop offset="0.546875" stop-color="white"/>
<stop offset="0.713542"/>
<stop offset="0.833333" stop-color="white"/>
<stop offset="0.931117"/>
<stop offset="0.931504"/>
</radialGradient>
<linearGradient id="paint11_linear_126_4" x1="28.0863" y1="487.205" x2="460.627" y2="640.894" gradientUnits="userSpaceOnUse">
<stop/>
<stop offset="0.994811"/>
</linearGradient>
<radialGradient id="paint12_radial_126_4" cx="0" cy="0" r="1" gradientUnits="userSpaceOnUse" gradientTransform="translate(527.15 486.66) rotate(-140.127) scale(230.042 405.329)">
<stop stop-color="#CC00FF"/>
<stop offset="0.229167" stop-color="#DAFF00"/>
<stop offset="0.46875" stop-color="#FF00FF"/>
<stop offset="0.682292" stop-color="#ABB3FC"/>
<stop offset="0.875" stop-color="#5DF7A4"/>
<stop offset="1" stop-color="#58C4F6"/>
</radialGradient>
<radialGradient id="paint13_angular_126_4" cx="0" cy="0" r="1" gradientUnits="userSpaceOnUse" gradientTransform="translate(418.642 434.251) rotate(-132.578) scale(117.854 215.351)">
<stop offset="0.000690214" stop-color="white"/>
<stop offset="0.140625"/>
<stop offset="0.144348"/>
<stop offset="0.244792" stop-color="white"/>
<stop offset="0.395833"/>
<stop offset="0.546875" stop-color="white"/>
<stop offset="0.713542"/>
<stop offset="0.833333" stop-color="white"/>
<stop offset="0.931117"/>
<stop offset="0.931504"/>
</radialGradient>
<linearGradient id="paint14_linear_126_4" x1="87.7704" y1="494.36" x2="520.311" y2="648.049" gradientUnits="userSpaceOnUse">
<stop/>
<stop offset="0.994811"/>
</linearGradient>
<radialGradient id="paint15_radial_126_4" cx="0" cy="0" r="1" gradientUnits="userSpaceOnUse" gradientTransform="translate(577.816 500.093) rotate(-140.127) scale(230.042 405.329)">
<stop stop-color="#CC00FF"/>
<stop offset="0.229167" stop-color="#DAFF00"/>
<stop offset="0.46875" stop-color="#FF00FF"/>
<stop offset="0.682292" stop-color="#ABB3FC"/>
<stop offset="0.875" stop-color="#5DF7A4"/>
<stop offset="1" stop-color="#58C4F6"/>
</radialGradient>
<radialGradient id="paint16_angular_126_4" cx="0" cy="0" r="1" gradientUnits="userSpaceOnUse" gradientTransform="translate(469.308 447.683) rotate(-132.578) scale(117.854 215.351)">
<stop offset="0.000690214" stop-color="white"/>
<stop offset="0.140625"/>
<stop offset="0.144348"/>
<stop offset="0.244792" stop-color="white"/>
<stop offset="0.395833"/>
<stop offset="0.546875" stop-color="white"/>
<stop offset="0.713542"/>
<stop offset="0.833333" stop-color="white"/>
<stop offset="0.931117"/>
<stop offset="0.931504"/>
</radialGradient>
<linearGradient id="paint17_linear_126_4" x1="138.436" y1="507.793" x2="570.978" y2="661.481" gradientUnits="userSpaceOnUse">
<stop/>
<stop offset="0.994811"/>
</linearGradient>
</defs>
</svg>
